<?xml version="1.0" encoding="utf-8"?>
<!-- Generator: Adobe Illustrator 23.0.1, SVG Export Plug-In . SVG Version: 6.00 Build 0)  -->
<svg version="1.1" id="Layer_1" xmlns="http://www.w3.org/2000/svg" xmlns:xlink="http://www.w3.org/1999/xlink" x="0px" y="0px"
	 width="20px" height="23.1px" viewBox="0 0 20 23.1" style="enable-background:new 0 0 20 23.1;" xml:space="preserve">
<style type="text/css">
	.st0{fill:#FFFFFF;}
</style>
<g>
	<polygon class="st0" points="10,0 0,5.8 0,13.1 1.2,13.7 1.2,6.5 10,1.4 18.8,6.5 18.8,13.7 20,13 20,5.8 	"/>
	<polygon class="st0" points="13,6 16.3,7.9 16.3,15.2 15.5,15.6 13.5,16.8 13.5,11.8 13.5,10.5 11.6,12.9 10.7,14.1 10,15 
		9.8,14.8 9.3,14.2 9.3,14.1 8.3,12.8 6.5,10.5 6.5,11.8 6.5,16.8 3.7,15.2 3.7,7.9 7,6 10,10.5 	"/>
	<polygon class="st0" points="20,15.9 20,17.3 10,23.1 10,23.1 0,17.3 0,15.9 9.6,21.5 10,21.7 10.7,21.3 12.2,20.4 12.2,20.4 	"/>
</g>
</svg>
